<?xml version="1.0" encoding="UTF-8"?>
<svg width="40px" height="40px" viewBox="0 0 40 40" version="1.1" xmlns="http://www.w3.org/2000/svg" xmlns:xlink="http://www.w3.org/1999/xlink">
    <!-- Generator: Sketch 51.3 (57544) - http://www.bohemiancoding.com/sketch -->
    <title>client_FRI logo</title>
    <desc>Created with Sketch.</desc>
    <defs></defs>
    <g id="Symbols" stroke="none" stroke-width="1" fill="none" fill-rule="evenodd">
        <g id="mobile-menu1" transform="translate(-10.000000, -10.000000)" fill="#FFFFFF">
            <g id="mobile-menu">
                <g id="FRI-logo" transform="translate(10.000000, 10.000000)">
                    <g id="Group-5">
                        <path d="M22.8812511,15.4902555 L20.6054802,15.4902555 L20.6054802,18.8578326 L22.8812511,18.8578326 C24.1785198,18.8578326 24.7700617,18.1979207 24.7700617,17.1741322 C24.7700617,16.1501674 24.1785198,15.4902555 22.8812511,15.4902555" id="Fill-1"></path>
                        <path d="M29.3880176,26.3901322 L33.0519824,26.3901322 L33.0519824,12.418326 L29.3880176,12.418326 L29.3880176,26.3901322 Z M24.7925991,26.3897797 L21.8798238,21.7702203 L20.6056388,21.7702203 L20.6056388,26.3897797 L16.987489,26.3897797 L16.987489,12.418326 L23.2681938,12.418326 C26.2718943,12.418326 28.3422026,14.1245815 28.3422026,17.1740969 C28.3422026,19.2903965 27.2727753,20.7462555 25.5663436,21.3837885 L28.8435242,26.3897797 L24.7925991,26.3897797 Z M16.0096916,15.5813216 L9.79788546,15.5813216 L9.79788546,18.357533 L15.5092511,18.357533 L15.5092511,21.4521586 L9.79788546,21.4521586 L9.79788546,26.3901322 L6.17938326,26.3901322 L6.17938326,12.4179736 L16.0096916,12.4179736 L16.0096916,15.5813216 Z M0,0 L0,39.9598238 L29.0493392,39.9598238 L39.9615859,29.0481057 L39.9615859,0 L0,0 Z" id="Fill-3"></path>
                    </g>
                </g>
            </g>
        </g>
    </g>
</svg>