<?xml version="1.0" encoding="UTF-8"?>
<svg width="19px" height="16px" viewBox="0 0 19 16" version="1.1" xmlns="http://www.w3.org/2000/svg" xmlns:xlink="http://www.w3.org/1999/xlink">
    <!-- Generator: Sketch 51.3 (57544) - http://www.bohemiancoding.com/sketch -->
    <title>client_Twitter</title>
    <desc>Created with Sketch.</desc>
    <defs></defs>
    <g id="Home-page" stroke="none" stroke-width="1" fill="none" fill-rule="evenodd">
        <g id="Contact-320" transform="translate(-121.000000, -667.000000)" fill="#FF163C">
            <g id="Text" transform="translate(16.000000, 432.000000)">
                <g id="Social" transform="translate(41.000000, 232.000000)">
                    <path d="M81.06656,7.50767557 C81.06656,7.33285264 81.06314,7.15873844 81.055388,6.98556923 C81.816452,6.41542596 82.478108,5.7040856 83,4.89423015 C82.30156,5.21568386 81.54992,5.43240131 80.76142,5.53005015 C81.566184,5.03015105 82.18414,4.23880164 82.475524,3.29570276 C81.722136,3.75835355 80.888264,4.09492708 80.000356,4.2761287 C79.288996,3.49107921 78.275992,3 77.154916,3 C75.002064,3 73.256192,4.80894491 73.256192,7.0388036 C73.256192,7.35584736 73.290468,7.66407123 73.357348,7.95977399 C70.11762,7.79101473 67.24482,6.18366744 65.3224,3.73976877 C64.987316,4.33652923 64.794504,5.03015105 64.794504,5.76984107 C64.794504,7.17118079 65.48276,8.40824995 66.529128,9.13195391 C65.889816,9.11163665 65.289036,8.92949005 64.763648,8.62662112 C64.762812,8.64355217 64.762812,8.66048322 64.762812,8.67820176 C64.762812,10.6345649 66.10672,12.2677419 67.890212,12.6380988 C67.562804,12.7303927 67.218296,12.7801621 66.86254,12.7801621 C66.611436,12.7801621 66.367172,12.7543324 66.129748,12.7073192 C66.626028,14.3119891 68.065012,15.479759 69.771364,15.5126761 C68.437032,16.5961059 66.756368,17.2416907 64.929936,17.2416907 C64.615448,17.2416907 64.30514,17.223106 64,17.1857789 C65.725276,18.3313416 67.773628,19 69.975424,19 C77.145492,19 81.06656,12.8449726 81.06656,7.50767557 Z" id="Twitter"></path>
                </g>
            </g>
        </g>
    </g>
</svg>