<svg width="17" height="17" xmlns="http://www.w3.org/2000/svg"><path d="M4.995.051C5.902.01 6.192 0 8.5 0s2.598.01 3.505.051c.904.041 1.522.185 2.063.395a4.166 4.166 0 011.505.98c.473.473.764.947.98 1.506.21.54.355 1.159.396 2.063.041.907.051 1.197.051 3.505s-.01 2.598-.051 3.505c-.041.904-.185 1.522-.395 2.063a4.166 4.166 0 01-.98 1.505 4.167 4.167 0 01-1.506.98c-.54.21-1.159.355-2.063.396-.907.041-1.197.051-3.505.051s-2.598-.01-3.505-.051c-.904-.041-1.522-.185-2.063-.395a4.167 4.167 0 01-1.505-.98 4.167 4.167 0 01-.98-1.506c-.21-.54-.355-1.159-.396-2.063C.01 11.098 0 10.808 0 8.5s.01-2.598.051-3.505c.041-.904.185-1.522.395-2.063a4.167 4.167 0 01.98-1.505 4.166 4.166 0 011.506-.98C3.472.236 4.091.091 4.995.05zm9.466 4.512a1.02 1.02 0 10-2.04 0 1.02 1.02 0 002.04 0zm-5.66-.135a4.365 4.365 0 100 8.73 4.365 4.365 0 000-8.73zm0 7.199a2.833 2.833 0 110-5.667 2.833 2.833 0 010 5.667z" fill="#FFF" fill-rule="evenodd"/></svg>