<svg width="21" height="18" xmlns="http://www.w3.org/2000/svg"><path d="M18.863 5.071c0-.197-.004-.392-.012-.587A9.048 9.048 0 0021 2.13a8.254 8.254 0 01-2.474.715A4.525 4.525 0 0020.42.333a8.37 8.37 0 01-2.735 1.103C16.898.552 15.779 0 14.54 0c-2.38 0-4.31 2.035-4.31 4.544 0 .356.038.703.112 1.036-3.58-.19-6.756-1.998-8.88-4.748a4.719 4.719 0 00-.584 2.284c0 1.577.76 2.968 1.917 3.782A4.108 4.108 0 01.844 6.33v.058c0 2.2 1.484 4.038 3.456 4.455a4.111 4.111 0 01-1.946.078c.548 1.805 2.139 3.119 4.025 3.156-1.475 1.219-3.332 1.945-5.351 1.945A8.32 8.32 0 010 15.959 11.743 11.743 0 006.604 18c7.925 0 12.259-6.924 12.259-12.929z"/></svg>