<?xml version="1.0" encoding="UTF-8"?>
<svg width="56px" height="66px" viewBox="0 0 56 66" version="1.1" xmlns="http://www.w3.org/2000/svg" xmlns:xlink="http://www.w3.org/1999/xlink">
    <!-- Generator: Sketch 51.3 (57544) - http://www.bohemiancoding.com/sketch -->
    <title>client_Group 7</title>
    <desc>Created with Sketch.</desc>
    <defs></defs>
    <g id="Home-page" stroke="none" stroke-width="1" fill="none" fill-rule="evenodd">
        <g id="Contact" transform="translate(-633.000000, -1658.000000)" fill="#FF163C">
            <g id="Map" transform="translate(0.000000, 1424.000000)">
                <g id="Group-7" transform="translate(633.000000, 234.000000)">
                    <path d="M41.1833481,36.6398655 L46.3176009,36.6398655 L46.3176009,17.2412867 L41.1833481,17.2412867 L41.1833481,36.6398655 Z M34.7432621,36.6398655 L30.661774,30.2266605 L28.876123,30.2266605 L28.876123,36.6398655 L23.8056434,36.6398655 L23.8056434,17.2412867 L32.6068582,17.2412867 C36.8158927,17.2412867 39.7175756,19.6106975 39.7175756,23.8445461 C39.7175756,26.7826154 38.2194104,28.8045126 35.8274073,29.6890926 L40.4190814,36.6398655 L34.7432621,36.6398655 Z M22.4350247,21.6325946 L13.729976,21.6325946 L13.729976,25.4873376 L21.7335189,25.4873376 L21.7335189,29.783869 L13.729976,29.783869 L13.729976,36.6398655 L8.65949639,36.6398655 L8.65949639,17.2412867 L22.4350247,17.2412867 L22.4350247,21.6325946 Z M0,0 L0,66 L8.65765943,55.4808179 L40.7085917,55.4808179 L56,40.3306302 L56,0 L0,0 Z" id="Fill-1"></path>
                    <path d="M31.7322404,21 L29,21 L29,26 L31.7322404,26 C33.2900512,26 34,25.0203753 34,23.4997319 C34,21.9796247 33.2900512,21 31.7322404,21" id="Fill-3"></path>
                </g>
            </g>
        </g>
    </g>
</svg>