<?xml version="1.0" encoding="UTF-8"?>
<svg width="18px" height="18px" viewBox="0 0 18 18" version="1.1" xmlns="http://www.w3.org/2000/svg" xmlns:xlink="http://www.w3.org/1999/xlink">
    <!-- Generator: Sketch 51.3 (57544) - http://www.bohemiancoding.com/sketch -->
    <title>client_Insta</title>
    <desc>Created with Sketch.</desc>
    <defs></defs>
    <g id="Home-page" stroke="none" stroke-width="1" fill="none" fill-rule="evenodd">
        <g id="Contact-320" transform="translate(-185.000000, -665.000000)" fill="#FF163C">
            <g id="Text" transform="translate(16.000000, 432.000000)">
                <g id="Social" transform="translate(41.000000, 232.000000)">
                    <g id="Insta" transform="translate(128.000000, 1.000000)">
                        <path d="M5.28931151,0.0541599433 C6.24922148,0.0103604113 6.55574675,0 8.99998214,0 C11.4442532,0 11.7507071,0.0103604113 12.7106528,0.0541599433 C13.6686336,0.0978522986 14.3228399,0.250007443 14.895342,0.472506207 C15.4871715,0.702471613 15.9890799,1.01021155 16.4894163,1.51054797 C16.9897884,2.01092011 17.2974927,2.51282845 17.5274938,3.10465802 C17.7499926,3.67712433 17.9021477,4.33136644 17.9458043,5.28931151 C17.9896396,6.24925721 18,6.55574675 18,8.99998214 C18,11.4442532 17.9896396,11.7507428 17.9458043,12.7106885 C17.9021477,13.6686336 17.7499926,14.3228757 17.5274938,14.895342 C17.2974927,15.4871715 16.9897884,15.9890799 16.4894163,16.489452 C15.9890799,16.9897884 15.4871715,17.2974927 14.895342,17.5275295 C14.3228399,17.7499926 13.6686336,17.9021477 12.7106528,17.9458758 C11.7507071,17.9896396 11.4442532,18 8.99998214,18 C6.55574675,18 6.24922148,17.9896396 5.28931151,17.9458758 C4.33133072,17.9021477 3.67712433,17.7499926 3.10462229,17.5275295 C2.51282845,17.2974927 2.01088439,16.9897884 1.51054797,16.489452 C1.01021155,15.9890799 0.702471613,15.4871358 0.472470482,14.895342 C0.249971717,14.3228757 0.0978522986,13.6686336 0.0541242178,12.7106885 C0.0103246858,11.7507428 0,11.4442532 0,8.99998214 C0,6.55571103 0.0103246858,6.24925721 0.0541242178,5.28931151 C0.0978522986,4.33136644 0.249971717,3.67712433 0.472470482,3.10465802 C0.702471613,2.51282845 1.01021155,2.01092011 1.51054797,1.51054797 C2.01088439,1.01021155 2.51282845,0.702471613 3.10462229,0.472506207 C3.67712433,0.250007443 4.33133072,0.0978522986 5.28931151,0.0541599433 Z M15.3119781,4.8312027 C15.3119781,4.23472881 14.8284684,3.75118341 14.2319945,3.75118341 C13.6355206,3.75118341 13.1519752,4.23472881 13.1519752,4.8312027 C13.1519752,5.42767659 13.6355206,5.91118627 14.2319945,5.91118627 C14.8284684,5.91118627 15.3119781,5.42767659 15.3119781,4.8312027 Z M9.3187706,4.68897926 C6.7663225,4.68897926 4.69713401,6.75813203 4.69713401,9.31058012 C4.69713401,11.8630639 6.7663225,13.9322167 9.3187706,13.9322167 C11.8712187,13.9322167 13.9403715,11.8630639 13.9403715,9.31058012 C13.9403715,6.75813203 11.8712187,4.68897926 9.3187706,4.68897926 Z M9.3187706,12.310598 C7.66192647,12.310598 6.31875273,10.9674242 6.31875273,9.31058012 C6.31875273,7.653736 7.66192647,6.31059799 9.3187706,6.31059799 C10.9756147,6.31059799 12.3187885,7.653736 12.3187885,9.31058012 C12.3187885,10.9674242 10.9756147,12.310598 9.3187706,12.310598 Z" id="Combined-Shape"></path>
                    </g>
                </g>
            </g>
        </g>
    </g>
</svg>