<svg width="525" height="192" xmlns="http://www.w3.org/2000/svg"><path d="M0 8v33.077h27.136v148.975H64V8zm186 82v18h-35.47v36h-19.06v-36H96V90h35.47V54h19.06v36zm5-82v33.077h27.137v148.975H255V8zm96 121h90v-18.476h-90V129zm0-41.524h90V69h-90v18.476zm130.66-73.47C429.023 4.74 443.888.104 462.258.104c18.364 0 32.761 4.636 43.186 13.902 10.42 9.272 15.634 20.962 15.634 35.075 0 10.885-2.82 20.024-8.458 27.421-5.638 7.4-11.962 12.289-18.966 14.668v1.022c20.504 6.974 30.756 22.362 30.756 46.169 0 15.815-5.471 28.57-16.403 38.263-10.937 9.693-25.975 14.54-45.109 14.54-19.138 0-34.772-4.847-46.902-14.54-12.135-9.694-18.454-23.89-18.966-42.6h34.856c.34 8.335 3.204 15.01 8.586 20.026 5.383 5.017 12.598 7.524 21.658 7.524 9.054 0 15.93-2.422 20.632-7.27 4.697-4.847 7.048-11.773 7.048-20.79 0-9.011-3.204-15.688-9.611-20.024-6.408-4.337-16.532-6.505-30.372-6.505h-7.432V77.65h7.432c24.26 0 36.395-8.074 36.395-24.233 0-6.97-2.223-12.5-6.664-16.58-4.446-4.082-10.765-6.123-18.966-6.123-8.202 0-14.353 2.296-18.454 6.888-4.1 4.591-6.496 9.693-7.176 15.305h-35.113c.513-16.664 6.447-29.63 17.813-38.9" fill="#FFF" fill-rule="evenodd"/></svg>