<?xml version="1.0" encoding="UTF-8"?>
<svg width="107px" height="40px" viewBox="0 0 107 40" version="1.1" xmlns="http://www.w3.org/2000/svg" xmlns:xlink="http://www.w3.org/1999/xlink">
    <!-- Generator: Sketch 50.2 (55047) - http://www.bohemiancoding.com/sketch -->
    <title>Friday Logo White</title>
    <desc>Created with Sketch.</desc>
    <defs></defs>
    <g id="Style-Guide" stroke="none" stroke-width="1" fill="none" fill-rule="evenodd">
        <g id="Navigation" transform="translate(-238.000000, -168.000000)" fill="#FFFFFF">
            <g id="Sticky" transform="translate(150.000000, 144.000000)">
                <g id="Friday-Logo-White" transform="translate(88.000000, 24.000000)">
                    <path d="M0,0 L107,0 L107,28.3333333 L95.296875,40 L0,40 L0,0 Z M10.8671875,29.1666667 L15.790231,29.1666667 L15.790231,22.6875593 L23.5613478,22.6875593 L23.5613478,18.626304 L15.790231,18.626304 L15.790231,14.9835704 L24.2421875,14.9835704 L24.2421875,10.8333333 L10.8671875,10.8333333 L10.8671875,29.1666667 Z M41.796875,29.1666667 L45.9765625,29.1666667 L45.9765625,10.8333333 L41.796875,10.8333333 L41.796875,29.1666667 Z M90.9614515,10.8333333 L87.0139101,17.999749 L83.0669976,10.8333333 L77.7421875,10.8333333 L84.4128218,22.6581032 L84.4128218,29.1666667 L89.3395447,29.1666667 L89.3395447,22.6581032 L96.1328125,10.8333333 L90.9614515,10.8333333 Z M29.9248544,23.1056701 L31.6321111,23.1056701 L35.5340541,29.1666667 L40.9609375,29.1666667 L36.5703119,22.59757 C38.8570961,21.761782 40.2899386,19.8508837 40.2899386,17.073515 C40.2899386,13.0725331 37.5163514,10.8333333 33.4916112,10.8333333 L25.078125,10.8333333 L25.078125,29.1666667 L29.9248544,29.1666667 L29.9248544,23.1056701 Z M47.6484375,10.8333333 L47.6484375,29.1666667 L54.8045595,29.1666667 C60.7586965,29.1666667 64.3671875,25.5835788 64.3671875,20 C64.3671875,14.4164212 60.7586965,10.8333333 54.8045595,10.8333333 L47.6484375,10.8333333 Z M74.8031952,10.8333333 L69.8139923,10.8333333 L62.6953125,29.1666667 L67.5325886,29.1666667 L68.840535,25.6131528 L75.6247256,25.6131528 L76.9633075,29.1666667 L81.921875,29.1666667 L74.8031952,10.8333333 Z" id="Combined-Shape"></path>
                    <path d="M29.9248544,19.2832597 L32.9734823,19.2832597 C34.7114383,19.2832597 35.5033548,18.417403 35.5033548,17.073515 C35.5033548,15.7302405 34.7114383,14.8643839 32.9734823,14.8643839 L29.9248544,14.8643839 L29.9248544,19.2832597 Z" id="Fill-3"></path>
                    <path d="M54.5579497,25.0159548 C57.7042851,25.0159548 59.4628856,23.0756014 59.4628856,20 C59.4628856,16.8943299 57.7042851,14.9539764 54.5579497,14.9539764 L52.5223094,14.9539764 L52.5223094,25.0159548 L54.5579497,25.0159548 Z" id="Fill-6"></path>
                    <polygon id="Fill-8" points="70.331669 21.6718267 74.1642271 21.6718267 72.2473228 16.5063148"></polygon>
                </g>
            </g>
        </g>
    </g>
</svg>