<svg width="89" height="34" xmlns="http://www.w3.org/2000/svg"><path d="M88.893 0L89 24.745 79.791 34H.108L0 0h88.893zm-60.21 9.35h-7.115V25.5h4.099v-5.34h1.443l3.3 5.34h4.588l-3.712-5.787c1.934-.736 3.145-2.42 3.145-4.866 0-3.524-2.345-5.497-5.748-5.497zm11.084 0h-4.15V25.5h4.15V9.35zm7.578 0h-5.98V25.5h5.98c4.975 0 7.99-3.156 7.99-8.075 0-4.918-3.015-8.075-7.99-8.075zm16.884 0h-4.227L53.97 25.5h4.098l1.109-3.13h5.748l1.134 3.13h4.202L64.23 9.35zm6.136 0h-4.486l5.62 10.416V25.5h4.15v-5.734L81.37 9.35h-4.356l-3.325 6.313-3.325-6.313zm-49.905 0H9.324V25.5h4.099v-5.708h6.47v-3.577h-6.47v-3.209h7.037V9.35zm26.679 3.63c2.63 0 4.098 1.71 4.098 4.445 0 2.71-1.469 4.419-4.098 4.419h-1.701V12.98zm14.925 1.367l1.624 4.55H60.44l1.624-4.55zm-33.82-1.446c1.47 0 2.14.763 2.14 1.946 0 1.184-.67 1.947-2.14 1.947h-2.577V12.9z" fill="#FFF" fill-rule="evenodd"/></svg>