<svg height="32" width="84" xmlns="http://www.w3.org/2000/svg"><g fill="none" fill-rule="evenodd"><path d="m0 0 .102 32h75.207l8.691-8.71-.101-23.29z" fill="#fc1e42"/><path d="m26.705 8.536c3.204 0 5.413 1.826 5.413 5.088 0 2.263-1.14 3.821-2.962 4.502l3.497 5.355h-4.323l-3.108-4.94h-1.36v4.94h-3.86v-14.945h6.702zm10.44 0v14.945h-3.91v-14.944h3.91zm7.137 0c4.686 0 7.527 2.922 7.527 7.473s-2.84 7.472-7.527 7.472h-5.632v-14.944h5.633zm15.903 0 5.682 14.945h-3.958l-1.068-2.896h-5.415l-1.044 2.896h-3.86l5.681-14.945zm5.78 0 3.13 5.842 3.133-5.841h4.103l-5.39 9.638v5.306h-3.909v-5.306l-5.293-9.638h4.225zm-47.006 0v3.384h-6.628v2.97h6.094v3.31h-6.094v5.281h-3.86v-14.944h10.488zm25.13 3.36h-1.603v8.202h1.602c2.476 0 3.86-1.582 3.86-4.09 0-2.53-1.384-4.113-3.86-4.113zm14.057 1.265-1.53 4.21h3.06zm-31.854-1.338h-2.428v3.602h2.428c1.384 0 2.015-.706 2.015-1.801s-.631-1.801-2.015-1.801z" fill="#fff"/></g></svg>