<svg width="20" height="20" xmlns="http://www.w3.org/2000/svg"><path d="M10.566 0c2.203 0 2.569.014 3.556.059 1.066.048 1.792.217 2.428.465a4.89 4.89 0 011.77 1.153 4.883 4.883 0 011.154 1.772c.248.636.417 1.363.465 2.427.044.952.058 1.326.06 3.328v1.59c-.002 2.002-.016 2.376-.06 3.33-.048 1.063-.217 1.79-.465 2.426a4.894 4.894 0 01-1.153 1.771 4.907 4.907 0 01-1.77 1.154c-.637.248-1.363.416-2.429.465-.948.043-1.323.057-3.3.06h-1.85c-1.8-.004-2.181-.019-3.095-.06-1.066-.05-1.792-.217-2.428-.465a4.911 4.911 0 01-1.772-1.154A4.912 4.912 0 01.524 16.55c-.247-.636-.416-1.363-.465-2.427-.042-.915-.055-1.296-.058-3.096V8.972c.003-1.8.016-2.182.058-3.096.049-1.064.218-1.79.465-2.427a4.9 4.9 0 011.153-1.772A4.894 4.894 0 013.449.524C4.085.276 4.81.107 5.877.06 6.867.014 7.23 0 9.453-.001zm-.279 1.8h-.574c-2.408 0-2.74.013-3.755.059-.975.044-1.504.208-1.856.345-.467.18-.8.397-1.15.748-.35.35-.567.683-.748 1.15-.138.353-.3.882-.344 1.856-.042.899-.055 1.261-.058 3v2.083c.003 1.739.016 2.101.058 3 .044.974.206 1.503.344 1.857.18.466.398.8.748 1.149.35.35.683.567 1.15.748.352.137.881.3 1.856.345.976.045 1.32.056 3.486.057h1.112c2.164-.001 2.507-.012 3.484-.057.976-.045 1.505-.208 1.857-.345.466-.181.8-.397 1.15-.748.35-.35.567-.683.748-1.15.138-.353.3-.882.344-1.857.048-1.054.059-1.37.059-4.04v-.288c0-2.407-.013-2.738-.059-3.754-.044-.974-.206-1.503-.344-1.857a3.099 3.099 0 00-.748-1.149 3.081 3.081 0 00-1.15-.748c-.352-.137-.881-.301-1.857-.345C12.985 1.81 12.67 1.8 10 1.8zM10 5a5 5 0 110 10 5 5 0 010-10zm0 1.753a3.246 3.246 0 10.001 6.492 3.246 3.246 0 000-6.492zm5.417-3.42a1.25 1.25 0 110 2.5 1.25 1.25 0 010-2.5z" fill="#FFF" fill-rule="evenodd"/></svg>