<svg width="23" height="18" xmlns="http://www.w3.org/2000/svg"><path d="M20.646 4.483c.01.195.013.39.013.586C20.66 11.076 15.913 18 7.234 18 4.568 18 2.089 17.248 0 15.958c.37.042.745.062 1.126.062a9.68 9.68 0 005.859-1.944c-2.063-.035-3.807-1.35-4.406-3.155a4.874 4.874 0 002.128-.079C2.551 10.425.924 8.588.924 6.387V6.33c.637.34 1.364.545 2.138.568-1.267-.813-2.1-2.207-2.1-3.783 0-.833.234-1.613.64-2.285 2.325 2.75 5.804 4.559 9.725 4.748a4.43 4.43 0 01-.122-1.035c0-2.509 2.113-4.543 4.72-4.543 1.356 0 2.582.552 3.443 1.433A9.661 9.661 0 0022.365.331a4.59 4.59 0 01-2.075 2.513A9.605 9.605 0 0023 2.131a9.382 9.382 0 01-2.354 2.352" fill="#FFF" fill-rule="evenodd"/></svg>