<svg width="107" height="40" viewBox="0 0 107 40" xmlns="http://www.w3.org/2000/svg"><title>friday_logo_full</title><g fill="#FC1E42"><path d="M0 0h107v28.333L95.297 40H0V0zm10.867 29.167h4.923v-6.48h7.771v-4.06h-7.77v-3.643h8.451v-4.15H10.867v18.333zm30.93 0h4.18V10.833h-4.18v18.334zM90.96 10.833L87.014 18l-3.947-7.167h-5.325l6.67 11.825v6.509h4.928v-6.509l6.793-11.825H90.96zM29.925 23.106h1.707l3.902 6.06h5.427l-4.39-6.568c2.286-.836 3.719-2.747 3.719-5.524 0-4.001-2.774-6.24-6.798-6.24h-8.414v18.333h4.847v-6.061zm17.723-12.273v18.334h7.157c5.954 0 9.562-3.583 9.562-9.167s-3.608-9.167-9.562-9.167h-7.157zm27.155 0h-4.989l-7.119 18.334h4.838l1.308-3.554h6.784l1.338 3.554h4.959l-7.119-18.334z"/><path d="M29.925 19.283h3.048c1.738 0 2.53-.866 2.53-2.21 0-1.343-.792-2.209-2.53-2.209h-3.048v4.42zm24.633 5.733c3.146 0 4.905-1.94 4.905-5.016 0-3.106-1.759-5.046-4.905-5.046h-2.036v10.062h2.036zm15.774-3.344h3.832l-1.917-5.166z"/></g></svg>